# xmcd CD database file
# Copyright (C) 1996 Ti Kan
#
# Track frame offsets:
#	150
#	10077
#	24490
#	41700
#	59735
#	76782
#	91505
#	106430
#	117315
#	130905
#	140635
#	150110
#	160367
#	183752
# Disc length: 2603 seconds
#
# Revision: 1
# Processed by: cddbd v1.4PL0 Copyright (c) Steve Scherf et al.
# Submitted via: CDCOPY 4.900
#
DISCID=a70a290e
DTITLE=Satan's Teardrops - Set Em Up Knock Em Down
DYEAR=1900
DGENRE=
TTITLE0=Wrong and Mean
TTITLE1=She's Gonna Die
TTITLE2=On A Roll
TTITLE3=Let's Fight
TTITLE4=Shallow Grave
TTITLE5=Wild Man
TTITLE6=Black Cat Bone
TTITLE7=All By Myself
TTITLE8=Poor White Trash
TTITLE9=Strippers and Junkies
TTITLE10=Hard Bad Luck
TTITLE11=Long Gone
TTITLE12=Spooky Eye
TTITLE13=Hot Rod Man
EXTD=
EXTT0=
EXTT1=
EXTT2=
EXTT3=
EXTT4=
EXTT5=
EXTT6=
EXTT7=
EXTT8=
EXTT9=
EXTT10=
EXTT11=
EXTT12=
EXTT13=
PLAYORDER=
